<svg width="238" height="238" viewBox="0 0 238 238" fill="none" xmlns="http://www.w3.org/2000/svg">
<g clip-path="url(#clip0_33_94)">
<path d="M211.555 238V218.167C211.555 191.722 187.193 171.889 165.278 171.889H72.7221C50.8195 171.889 26.4443 191.722 26.4443 218.167V238H211.555Z" fill="#292F33"/>
<path d="M148.75 198.353L177.125 192.297L164.478 171.889L148.75 171.909V198.353Z" fill="#546170"/>
<path d="M136.057 238H154.766L183.736 187.313L164.478 193.421L152.948 178.85L136.057 238Z" fill="#66757F"/>
<path d="M89.2499 198.353L60.875 192.297L73.5154 171.889L89.2499 171.909V198.353Z" fill="#546170"/>
<path d="M101.943 238H83.234L54.2642 187.313L73.5157 193.421L85.0521 178.85L101.943 238Z" fill="#66757F"/>
<path d="M137.544 238L156.465 171.776H81.5347L100.456 238H137.544Z" fill="#DFE7EC"/>
<path d="M119 215.172C121.556 215.172 123.628 213.1 123.628 210.544C123.628 207.988 121.556 205.916 119 205.916C116.444 205.916 114.372 207.988 114.372 210.544C114.372 213.1 116.444 215.172 119 215.172Z" fill="#292F33"/>
<path d="M119 234.06C121.556 234.06 123.628 231.988 123.628 229.432C123.628 226.876 121.556 224.804 119 224.804C116.444 224.804 114.372 226.876 114.372 229.432C114.372 231.988 116.444 234.06 119 234.06Z" fill="#292F33"/>
<path d="M92.5557 171.142L119 182.711L145.445 171.142V144.697H92.5557V171.142Z" fill="#F7DECE"/>
<path d="M92.5557 158.667C100.595 167.75 108.125 170.031 118.974 170.031C129.809 170.031 137.399 167.744 145.445 158.667V132.222H92.5557V158.667Z" fill="#EEC2AD"/>
<path d="M92.0728 163.585L119 182.711L101.441 201.341L81.5347 171.776L92.0728 163.585ZM145.927 163.585L119 182.711L136.559 201.341L156.465 171.776L145.927 163.585Z" fill="#F4F7F9"/>
<path d="M139.131 176.206C138.901 176.068 138.638 175.994 138.37 175.99C138.102 175.987 137.838 176.054 137.604 176.186L119 186.413L100.397 176.186C100.162 176.054 99.8972 175.986 99.6282 175.988C99.3592 175.991 99.0956 176.064 98.8638 176.201C98.6321 176.337 98.4403 176.533 98.3078 176.767C98.1754 177.001 98.1068 177.266 98.1091 177.535V198.809C98.1126 199.218 98.2769 199.609 98.5664 199.897C98.856 200.185 99.2475 200.348 99.6561 200.35C99.9139 200.35 100.165 200.284 100.397 200.158L119 189.924L137.604 200.158C137.835 200.29 138.086 200.35 138.344 200.35C138.62 200.349 138.892 200.276 139.131 200.138C139.36 200 139.55 199.805 139.682 199.572C139.814 199.34 139.884 199.077 139.885 198.809V177.535C139.884 177.267 139.814 177.005 139.682 176.772C139.55 176.539 139.36 176.344 139.131 176.206ZM142.78 10.0224C130.054 5.90371 100.106 7.0276 92.6152 16.7592C73.1521 17.136 50.3174 34.7282 47.3225 57.9332C44.3607 80.9068 50.9653 91.5705 53.3122 108.845C55.9765 128.414 66.9774 134.675 75.7701 137.293C88.4238 154.012 101.877 153.298 124.468 153.298C168.577 153.298 189.587 123.786 191.445 73.6544C192.569 43.3424 174.778 20.3754 142.78 10.0224Z" fill="#292F33"/>
<path d="M168.008 75.803C163.737 69.8927 158.277 65.1327 146.297 63.4535C150.793 65.5095 155.097 72.6231 155.659 76.5567C156.221 80.4903 156.782 83.6702 153.226 79.7366C138.979 63.989 123.462 70.1902 108.092 60.571C97.3552 53.8541 94.0827 46.4166 94.0827 46.4166C94.0827 46.4166 92.7737 56.3333 76.4905 66.4417C71.7702 69.3704 66.1375 75.8956 63.0171 85.5346C60.7693 92.463 61.4701 98.6378 61.4701 109.189C61.4701 139.997 86.8633 165.899 118.18 165.899C149.497 165.899 174.89 139.766 174.89 109.189C174.884 90.0301 172.874 82.5463 168.008 75.803Z" fill="#F7DECE"/>
<path d="M92.9654 102.895C91.2945 102.895 89.6919 102.232 88.5104 101.05C87.3288 99.8684 86.665 98.2659 86.665 96.5949V90.2945C86.665 88.6236 87.3288 87.021 88.5104 85.8395C89.6919 84.6579 91.2945 83.9941 92.9654 83.9941C94.6364 83.9941 96.2389 84.6579 97.4205 85.8395C98.602 87.021 99.2658 88.6236 99.2658 90.2945V96.5949C99.2658 98.2659 98.602 99.8684 97.4205 101.05C96.2389 102.232 94.6364 102.895 92.9654 102.895ZM143.375 102.895C141.704 102.895 140.102 102.232 138.92 101.05C137.739 99.8684 137.075 98.2659 137.075 96.5949V90.2945C137.075 88.6236 137.739 87.021 138.92 85.8395C140.102 84.6579 141.704 83.9941 143.375 83.9941C145.046 83.9941 146.649 84.6579 147.83 85.8395C149.012 87.021 149.676 88.6236 149.676 90.2945V96.5949C149.676 98.2659 149.012 99.8684 147.83 101.05C146.649 102.232 145.046 102.895 143.375 102.895Z" fill="#292F33"/>
<ellipse cx="119" cy="123" rx="5" ry="3" fill="#6B6969"/>
<path d="M137 142C137 143.657 128.941 145 119 145C109.059 145 101 143.657 101 142C101 140.343 109.059 142 119 142C128.941 142 137 140.343 137 142Z" fill="#6B6969"/>
</g>
<defs>
<clipPath id="clip0_33_94">
<rect width="238" height="238" fill="white"/>
</clipPath>
</defs>
</svg>
