<svg width="335" height="210" viewBox="0 0 335 210" fill="none" xmlns="http://www.w3.org/2000/svg">
<g filter="url(#filter0_d_13_506)">
<rect x="4" width="327" height="202" rx="25" fill="#4A99E9"/>
<rect x="4.5" y="0.5" width="326" height="201" rx="24.5" stroke="#94ADD8"/>
</g>
<path d="M127.844 117V84.2727H140.948C143.356 84.2727 145.364 84.6296 146.973 85.3434C148.581 86.0572 149.79 87.0479 150.6 88.3157C151.41 89.5728 151.815 91.0217 151.815 92.6623C151.815 93.9407 151.559 95.0646 151.048 96.0341C150.536 96.9929 149.833 97.7812 148.938 98.3991C148.054 99.0064 147.042 99.4379 145.902 99.6935V100.013C147.148 100.066 148.315 100.418 149.402 101.068C150.499 101.718 151.388 102.629 152.07 103.8C152.752 104.962 153.093 106.347 153.093 107.955C153.093 109.692 152.662 111.242 151.799 112.605C150.946 113.958 149.684 115.029 148.011 115.817C146.339 116.606 144.277 117 141.827 117H127.844ZM134.764 111.343H140.405C142.333 111.343 143.739 110.975 144.624 110.24C145.508 109.495 145.95 108.504 145.95 107.268C145.95 106.363 145.732 105.564 145.295 104.871C144.858 104.179 144.235 103.635 143.425 103.241C142.626 102.847 141.673 102.65 140.565 102.65H134.764V111.343ZM134.764 97.9677H139.893C140.842 97.9677 141.683 97.8026 142.418 97.4723C143.164 97.1314 143.75 96.652 144.176 96.0341C144.613 95.4162 144.831 94.6758 144.831 93.8129C144.831 92.6303 144.411 91.6768 143.569 90.9524C142.738 90.228 141.555 89.8658 140.021 89.8658H134.764V97.9677ZM168.654 117.479C166.129 117.479 163.956 116.968 162.134 115.945C160.323 114.912 158.927 113.452 157.947 111.567C156.967 109.67 156.477 107.428 156.477 104.839C156.477 102.314 156.967 100.098 157.947 98.1914C158.927 96.2844 160.307 94.7983 162.086 93.733C163.876 92.6676 165.974 92.1349 168.382 92.1349C170.001 92.1349 171.509 92.396 172.904 92.918C174.311 93.4293 175.536 94.2017 176.58 95.2351C177.635 96.2685 178.455 97.5682 179.041 99.1342C179.627 100.69 179.92 102.511 179.92 104.599V106.469H159.193V102.25H173.512C173.512 101.27 173.299 100.402 172.872 99.6456C172.446 98.8892 171.855 98.2979 171.099 97.8718C170.353 97.435 169.485 97.2166 168.494 97.2166C167.46 97.2166 166.544 97.4563 165.745 97.9357C164.957 98.4045 164.339 99.0384 163.892 99.8374C163.444 100.626 163.215 101.505 163.204 102.474V106.485C163.204 107.7 163.428 108.749 163.876 109.633C164.334 110.517 164.978 111.199 165.809 111.679C166.64 112.158 167.626 112.398 168.766 112.398C169.522 112.398 170.214 112.291 170.843 112.078C171.472 111.865 172.009 111.545 172.457 111.119C172.904 110.693 173.245 110.171 173.48 109.553L179.776 109.969C179.456 111.482 178.801 112.803 177.81 113.932C176.83 115.05 175.562 115.924 174.007 116.553C172.462 117.17 170.678 117.479 168.654 117.479ZM191.17 102.81V117H184.362V92.4545H190.85V96.7852H191.138C191.681 95.3576 192.592 94.2283 193.87 93.3974C195.149 92.5558 196.699 92.1349 198.521 92.1349C200.225 92.1349 201.711 92.5078 202.979 93.2536C204.247 93.9993 205.232 95.0646 205.935 96.4496C206.638 97.8239 206.99 99.4645 206.99 101.371V117H200.182V102.586C200.193 101.084 199.81 99.9119 199.032 99.0703C198.254 98.218 197.184 97.7919 195.82 97.7919C194.904 97.7919 194.094 97.989 193.391 98.3832C192.698 98.7773 192.155 99.3526 191.761 100.109C191.377 100.855 191.18 101.755 191.17 102.81Z" fill="white"/>
<path d="M131.11 136.14C129.626 136.14 128.501 135.734 127.736 134.922C126.98 134.11 126.602 133.013 126.602 131.632C126.602 130.643 126.761 129.793 127.078 129.084C127.405 128.365 127.899 127.815 128.562 127.432C129.225 127.04 130.069 126.844 131.096 126.844C131.619 126.844 132.095 126.886 132.524 126.97C132.963 127.045 133.369 127.147 133.742 127.278V128.608C133.369 128.459 132.967 128.347 132.538 128.272C132.118 128.188 131.675 128.146 131.208 128.146C130.088 128.146 129.295 128.445 128.828 129.042C128.371 129.639 128.142 130.503 128.142 131.632C128.142 132.687 128.394 133.489 128.898 134.04C129.402 134.581 130.181 134.852 131.236 134.852C131.665 134.852 132.095 134.819 132.524 134.754C132.963 134.679 133.373 134.567 133.756 134.418V135.762C133.383 135.883 132.977 135.977 132.538 136.042C132.109 136.107 131.633 136.14 131.11 136.14ZM135.236 136V129.364H136.636L136.72 130.134C137.037 129.929 137.415 129.742 137.854 129.574C138.292 129.406 138.726 129.289 139.156 129.224V130.386C138.894 130.433 138.61 130.503 138.302 130.596C138.003 130.68 137.718 130.778 137.448 130.89C137.177 130.993 136.948 131.1 136.762 131.212V136H135.236ZM143.353 136.14C142.196 136.14 141.3 135.855 140.665 135.286C140.031 134.717 139.713 133.844 139.713 132.668C139.713 131.604 139.984 130.764 140.525 130.148C141.067 129.532 141.888 129.224 142.989 129.224C143.997 129.224 144.753 129.49 145.257 130.022C145.771 130.545 146.027 131.221 146.027 132.052V133.284H141.169C141.244 133.928 141.477 134.371 141.869 134.614C142.261 134.857 142.859 134.978 143.661 134.978C143.997 134.978 144.343 134.945 144.697 134.88C145.052 134.815 145.36 134.731 145.621 134.628V135.748C145.323 135.879 144.977 135.977 144.585 136.042C144.203 136.107 143.792 136.14 143.353 136.14ZM141.169 132.29H144.683V131.828C144.683 131.371 144.557 131.016 144.305 130.764C144.053 130.503 143.629 130.372 143.031 130.372C142.322 130.372 141.832 130.526 141.561 130.834C141.3 131.142 141.169 131.627 141.169 132.29ZM149.585 136.14C149.165 136.14 148.773 136.065 148.409 135.916C148.054 135.767 147.77 135.543 147.555 135.244C147.34 134.936 147.233 134.558 147.233 134.11C147.233 133.475 147.448 132.967 147.877 132.584C148.316 132.192 148.988 131.996 149.893 131.996H152.021V131.702C152.021 131.385 151.97 131.133 151.867 130.946C151.774 130.759 151.596 130.624 151.335 130.54C151.083 130.456 150.71 130.414 150.215 130.414C149.431 130.414 148.698 130.531 148.017 130.764V129.63C148.316 129.509 148.68 129.411 149.109 129.336C149.538 129.261 150 129.224 150.495 129.224C151.466 129.224 152.203 129.42 152.707 129.812C153.22 130.204 153.477 130.843 153.477 131.73V136H152.175L152.077 135.328C151.806 135.589 151.47 135.79 151.069 135.93C150.677 136.07 150.182 136.14 149.585 136.14ZM149.991 135.048C150.448 135.048 150.845 134.973 151.181 134.824C151.526 134.665 151.806 134.455 152.021 134.194V133.032H149.921C149.473 133.032 149.146 133.121 148.941 133.298C148.745 133.466 148.647 133.727 148.647 134.082C148.647 134.427 148.764 134.675 148.997 134.824C149.23 134.973 149.562 135.048 149.991 135.048ZM157.703 136.14C156.994 136.14 156.462 135.953 156.107 135.58C155.762 135.197 155.589 134.679 155.589 134.026V130.554H154.609V129.364H155.589V127.838L157.101 127.376V129.364H158.865L158.767 130.554H157.101V133.942C157.101 134.325 157.19 134.595 157.367 134.754C157.544 134.903 157.834 134.978 158.235 134.978C158.487 134.978 158.753 134.931 159.033 134.838V135.916C158.669 136.065 158.226 136.14 157.703 136.14ZM160.76 127.978V126.718H162.426V127.978H160.76ZM160.886 136V130.526H159.878L160.018 129.364H162.412V136H160.886ZM166.257 136L163.639 129.364H165.221L167.083 134.516L168.945 129.364H170.513L167.909 136H166.257ZM174.607 136.14C173.45 136.14 172.554 135.855 171.919 135.286C171.285 134.717 170.967 133.844 170.967 132.668C170.967 131.604 171.238 130.764 171.779 130.148C172.321 129.532 173.142 129.224 174.243 129.224C175.251 129.224 176.007 129.49 176.511 130.022C177.025 130.545 177.281 131.221 177.281 132.052V133.284H172.423C172.498 133.928 172.731 134.371 173.123 134.614C173.515 134.857 174.113 134.978 174.915 134.978C175.251 134.978 175.597 134.945 175.951 134.88C176.306 134.815 176.614 134.731 176.875 134.628V135.748C176.577 135.879 176.231 135.977 175.839 136.042C175.457 136.107 175.046 136.14 174.607 136.14ZM172.423 132.29H175.937V131.828C175.937 131.371 175.811 131.016 175.559 130.764C175.307 130.503 174.883 130.372 174.285 130.372C173.576 130.372 173.086 130.526 172.815 130.834C172.554 131.142 172.423 131.627 172.423 132.29Z" fill="#DFDFDF"/>
<path d="M131.11 136.14C129.626 136.14 128.501 135.734 127.736 134.922C126.98 134.11 126.602 133.013 126.602 131.632C126.602 130.643 126.761 129.793 127.078 129.084C127.405 128.365 127.899 127.815 128.562 127.432C129.225 127.04 130.069 126.844 131.096 126.844C131.619 126.844 132.095 126.886 132.524 126.97C132.963 127.045 133.369 127.147 133.742 127.278V128.608C133.369 128.459 132.967 128.347 132.538 128.272C132.118 128.188 131.675 128.146 131.208 128.146C130.088 128.146 129.295 128.445 128.828 129.042C128.371 129.639 128.142 130.503 128.142 131.632C128.142 132.687 128.394 133.489 128.898 134.04C129.402 134.581 130.181 134.852 131.236 134.852C131.665 134.852 132.095 134.819 132.524 134.754C132.963 134.679 133.373 134.567 133.756 134.418V135.762C133.383 135.883 132.977 135.977 132.538 136.042C132.109 136.107 131.633 136.14 131.11 136.14ZM135.236 136V129.364H136.636L136.72 130.134C137.037 129.929 137.415 129.742 137.854 129.574C138.292 129.406 138.726 129.289 139.156 129.224V130.386C138.894 130.433 138.61 130.503 138.302 130.596C138.003 130.68 137.718 130.778 137.448 130.89C137.177 130.993 136.948 131.1 136.762 131.212V136H135.236ZM143.353 136.14C142.196 136.14 141.3 135.855 140.665 135.286C140.031 134.717 139.713 133.844 139.713 132.668C139.713 131.604 139.984 130.764 140.525 130.148C141.067 129.532 141.888 129.224 142.989 129.224C143.997 129.224 144.753 129.49 145.257 130.022C145.771 130.545 146.027 131.221 146.027 132.052V133.284H141.169C141.244 133.928 141.477 134.371 141.869 134.614C142.261 134.857 142.859 134.978 143.661 134.978C143.997 134.978 144.343 134.945 144.697 134.88C145.052 134.815 145.36 134.731 145.621 134.628V135.748C145.323 135.879 144.977 135.977 144.585 136.042C144.203 136.107 143.792 136.14 143.353 136.14ZM141.169 132.29H144.683V131.828C144.683 131.371 144.557 131.016 144.305 130.764C144.053 130.503 143.629 130.372 143.031 130.372C142.322 130.372 141.832 130.526 141.561 130.834C141.3 131.142 141.169 131.627 141.169 132.29ZM149.585 136.14C149.165 136.14 148.773 136.065 148.409 135.916C148.054 135.767 147.77 135.543 147.555 135.244C147.34 134.936 147.233 134.558 147.233 134.11C147.233 133.475 147.448 132.967 147.877 132.584C148.316 132.192 148.988 131.996 149.893 131.996H152.021V131.702C152.021 131.385 151.97 131.133 151.867 130.946C151.774 130.759 151.596 130.624 151.335 130.54C151.083 130.456 150.71 130.414 150.215 130.414C149.431 130.414 148.698 130.531 148.017 130.764V129.63C148.316 129.509 148.68 129.411 149.109 129.336C149.538 129.261 150 129.224 150.495 129.224C151.466 129.224 152.203 129.42 152.707 129.812C153.22 130.204 153.477 130.843 153.477 131.73V136H152.175L152.077 135.328C151.806 135.589 151.47 135.79 151.069 135.93C150.677 136.07 150.182 136.14 149.585 136.14ZM149.991 135.048C150.448 135.048 150.845 134.973 151.181 134.824C151.526 134.665 151.806 134.455 152.021 134.194V133.032H149.921C149.473 133.032 149.146 133.121 148.941 133.298C148.745 133.466 148.647 133.727 148.647 134.082C148.647 134.427 148.764 134.675 148.997 134.824C149.23 134.973 149.562 135.048 149.991 135.048ZM157.703 136.14C156.994 136.14 156.462 135.953 156.107 135.58C155.762 135.197 155.589 134.679 155.589 134.026V130.554H154.609V129.364H155.589V127.838L157.101 127.376V129.364H158.865L158.767 130.554H157.101V133.942C157.101 134.325 157.19 134.595 157.367 134.754C157.544 134.903 157.834 134.978 158.235 134.978C158.487 134.978 158.753 134.931 159.033 134.838V135.916C158.669 136.065 158.226 136.14 157.703 136.14ZM160.76 127.978V126.718H162.426V127.978H160.76ZM160.886 136V130.526H159.878L160.018 129.364H162.412V136H160.886ZM166.257 136L163.639 129.364H165.221L167.083 134.516L168.945 129.364H170.513L167.909 136H166.257ZM174.607 136.14C173.45 136.14 172.554 135.855 171.919 135.286C171.285 134.717 170.967 133.844 170.967 132.668C170.967 131.604 171.238 130.764 171.779 130.148C172.321 129.532 173.142 129.224 174.243 129.224C175.251 129.224 176.007 129.49 176.511 130.022C177.025 130.545 177.281 131.221 177.281 132.052V133.284H172.423C172.498 133.928 172.731 134.371 173.123 134.614C173.515 134.857 174.113 134.978 174.915 134.978C175.251 134.978 175.597 134.945 175.951 134.88C176.306 134.815 176.614 134.731 176.875 134.628V135.748C176.577 135.879 176.231 135.977 175.839 136.042C175.457 136.107 175.046 136.14 174.607 136.14ZM172.423 132.29H175.937V131.828C175.937 131.371 175.811 131.016 175.559 130.764C175.307 130.503 174.883 130.372 174.285 130.372C173.576 130.372 173.086 130.526 172.815 130.834C172.554 131.142 172.423 131.627 172.423 132.29Z" fill="#DFDFDF"/>
<path d="M131.11 136.14C129.626 136.14 128.501 135.734 127.736 134.922C126.98 134.11 126.602 133.013 126.602 131.632C126.602 130.643 126.761 129.793 127.078 129.084C127.405 128.365 127.899 127.815 128.562 127.432C129.225 127.04 130.069 126.844 131.096 126.844C131.619 126.844 132.095 126.886 132.524 126.97C132.963 127.045 133.369 127.147 133.742 127.278V128.608C133.369 128.459 132.967 128.347 132.538 128.272C132.118 128.188 131.675 128.146 131.208 128.146C130.088 128.146 129.295 128.445 128.828 129.042C128.371 129.639 128.142 130.503 128.142 131.632C128.142 132.687 128.394 133.489 128.898 134.04C129.402 134.581 130.181 134.852 131.236 134.852C131.665 134.852 132.095 134.819 132.524 134.754C132.963 134.679 133.373 134.567 133.756 134.418V135.762C133.383 135.883 132.977 135.977 132.538 136.042C132.109 136.107 131.633 136.14 131.11 136.14ZM135.236 136V129.364H136.636L136.72 130.134C137.037 129.929 137.415 129.742 137.854 129.574C138.292 129.406 138.726 129.289 139.156 129.224V130.386C138.894 130.433 138.61 130.503 138.302 130.596C138.003 130.68 137.718 130.778 137.448 130.89C137.177 130.993 136.948 131.1 136.762 131.212V136H135.236ZM143.353 136.14C142.196 136.14 141.3 135.855 140.665 135.286C140.031 134.717 139.713 133.844 139.713 132.668C139.713 131.604 139.984 130.764 140.525 130.148C141.067 129.532 141.888 129.224 142.989 129.224C143.997 129.224 144.753 129.49 145.257 130.022C145.771 130.545 146.027 131.221 146.027 132.052V133.284H141.169C141.244 133.928 141.477 134.371 141.869 134.614C142.261 134.857 142.859 134.978 143.661 134.978C143.997 134.978 144.343 134.945 144.697 134.88C145.052 134.815 145.36 134.731 145.621 134.628V135.748C145.323 135.879 144.977 135.977 144.585 136.042C144.203 136.107 143.792 136.14 143.353 136.14ZM141.169 132.29H144.683V131.828C144.683 131.371 144.557 131.016 144.305 130.764C144.053 130.503 143.629 130.372 143.031 130.372C142.322 130.372 141.832 130.526 141.561 130.834C141.3 131.142 141.169 131.627 141.169 132.29ZM149.585 136.14C149.165 136.14 148.773 136.065 148.409 135.916C148.054 135.767 147.77 135.543 147.555 135.244C147.34 134.936 147.233 134.558 147.233 134.11C147.233 133.475 147.448 132.967 147.877 132.584C148.316 132.192 148.988 131.996 149.893 131.996H152.021V131.702C152.021 131.385 151.97 131.133 151.867 130.946C151.774 130.759 151.596 130.624 151.335 130.54C151.083 130.456 150.71 130.414 150.215 130.414C149.431 130.414 148.698 130.531 148.017 130.764V129.63C148.316 129.509 148.68 129.411 149.109 129.336C149.538 129.261 150 129.224 150.495 129.224C151.466 129.224 152.203 129.42 152.707 129.812C153.22 130.204 153.477 130.843 153.477 131.73V136H152.175L152.077 135.328C151.806 135.589 151.47 135.79 151.069 135.93C150.677 136.07 150.182 136.14 149.585 136.14ZM149.991 135.048C150.448 135.048 150.845 134.973 151.181 134.824C151.526 134.665 151.806 134.455 152.021 134.194V133.032H149.921C149.473 133.032 149.146 133.121 148.941 133.298C148.745 133.466 148.647 133.727 148.647 134.082C148.647 134.427 148.764 134.675 148.997 134.824C149.23 134.973 149.562 135.048 149.991 135.048ZM157.703 136.14C156.994 136.14 156.462 135.953 156.107 135.58C155.762 135.197 155.589 134.679 155.589 134.026V130.554H154.609V129.364H155.589V127.838L157.101 127.376V129.364H158.865L158.767 130.554H157.101V133.942C157.101 134.325 157.19 134.595 157.367 134.754C157.544 134.903 157.834 134.978 158.235 134.978C158.487 134.978 158.753 134.931 159.033 134.838V135.916C158.669 136.065 158.226 136.14 157.703 136.14ZM160.76 127.978V126.718H162.426V127.978H160.76ZM160.886 136V130.526H159.878L160.018 129.364H162.412V136H160.886ZM166.257 136L163.639 129.364H165.221L167.083 134.516L168.945 129.364H170.513L167.909 136H166.257ZM174.607 136.14C173.45 136.14 172.554 135.855 171.919 135.286C171.285 134.717 170.967 133.844 170.967 132.668C170.967 131.604 171.238 130.764 171.779 130.148C172.321 129.532 173.142 129.224 174.243 129.224C175.251 129.224 176.007 129.49 176.511 130.022C177.025 130.545 177.281 131.221 177.281 132.052V133.284H172.423C172.498 133.928 172.731 134.371 173.123 134.614C173.515 134.857 174.113 134.978 174.915 134.978C175.251 134.978 175.597 134.945 175.951 134.88C176.306 134.815 176.614 134.731 176.875 134.628V135.748C176.577 135.879 176.231 135.977 175.839 136.042C175.457 136.107 175.046 136.14 174.607 136.14ZM172.423 132.29H175.937V131.828C175.937 131.371 175.811 131.016 175.559 130.764C175.307 130.503 174.883 130.372 174.285 130.372C173.576 130.372 173.086 130.526 172.815 130.834C172.554 131.142 172.423 131.627 172.423 132.29Z" fill="#DFDFDF"/>
<path d="M131.11 153.14C129.626 153.14 128.501 152.734 127.736 151.922C126.98 151.11 126.602 150.013 126.602 148.632C126.602 147.643 126.761 146.793 127.078 146.084C127.405 145.365 127.899 144.815 128.562 144.432C129.225 144.04 130.069 143.844 131.096 143.844C131.619 143.844 132.095 143.886 132.524 143.97C132.963 144.045 133.369 144.147 133.742 144.278V145.608C133.369 145.459 132.967 145.347 132.538 145.272C132.118 145.188 131.675 145.146 131.208 145.146C130.088 145.146 129.295 145.445 128.828 146.042C128.371 146.639 128.142 147.503 128.142 148.632C128.142 149.687 128.394 150.489 128.898 151.04C129.402 151.581 130.181 151.852 131.236 151.852C131.665 151.852 132.095 151.819 132.524 151.754C132.963 151.679 133.373 151.567 133.756 151.418V152.762C133.383 152.883 132.977 152.977 132.538 153.042C132.109 153.107 131.633 153.14 131.11 153.14ZM138.373 153.14C137.178 153.14 136.301 152.841 135.741 152.244C135.19 151.647 134.915 150.793 134.915 149.682C134.915 148.571 135.195 147.717 135.755 147.12C136.315 146.523 137.187 146.224 138.373 146.224C139.567 146.224 140.445 146.523 141.005 147.12C141.565 147.717 141.845 148.571 141.845 149.682C141.845 150.793 141.565 151.647 141.005 152.244C140.454 152.841 139.577 153.14 138.373 153.14ZM138.373 151.852C139.073 151.852 139.567 151.684 139.857 151.348C140.155 151.003 140.305 150.447 140.305 149.682C140.305 148.917 140.155 148.366 139.857 148.03C139.567 147.694 139.073 147.526 138.373 147.526C137.682 147.526 137.187 147.694 136.889 148.03C136.599 148.366 136.455 148.917 136.455 149.682C136.455 150.447 136.599 151.003 136.889 151.348C137.187 151.684 137.682 151.852 138.373 151.852ZM143.329 153V146.364H144.729L144.799 147.064C145.126 146.803 145.485 146.597 145.877 146.448C146.269 146.299 146.689 146.224 147.137 146.224C147.613 146.224 147.982 146.303 148.243 146.462C148.514 146.611 148.719 146.821 148.859 147.092C149.167 146.84 149.522 146.635 149.923 146.476C150.325 146.308 150.805 146.224 151.365 146.224C152.131 146.224 152.695 146.42 153.059 146.812C153.423 147.204 153.605 147.806 153.605 148.618V153H152.107V148.772C152.107 148.259 152 147.899 151.785 147.694C151.571 147.489 151.221 147.386 150.735 147.386C150.418 147.386 150.115 147.442 149.825 147.554C149.545 147.666 149.303 147.834 149.097 148.058C149.125 148.161 149.144 148.268 149.153 148.38C149.163 148.492 149.167 148.613 149.167 148.744V153H147.753V148.786C147.753 148.301 147.669 147.946 147.501 147.722C147.333 147.498 147.016 147.386 146.549 147.386C146.223 147.386 145.91 147.465 145.611 147.624C145.322 147.773 145.061 147.955 144.827 148.17V153H143.329ZM155.32 153V146.364H156.72L156.79 147.064C157.116 146.803 157.476 146.597 157.868 146.448C158.26 146.299 158.68 146.224 159.128 146.224C159.604 146.224 159.972 146.303 160.234 146.462C160.504 146.611 160.71 146.821 160.85 147.092C161.158 146.84 161.512 146.635 161.914 146.476C162.315 146.308 162.796 146.224 163.356 146.224C164.121 146.224 164.686 146.42 165.05 146.812C165.414 147.204 165.596 147.806 165.596 148.618V153H164.098V148.772C164.098 148.259 163.99 147.899 163.776 147.694C163.561 147.489 163.211 147.386 162.726 147.386C162.408 147.386 162.105 147.442 161.816 147.554C161.536 147.666 161.293 147.834 161.088 148.058C161.116 148.161 161.134 148.268 161.144 148.38C161.153 148.492 161.158 148.613 161.158 148.744V153H159.744V148.786C159.744 148.301 159.66 147.946 159.492 147.722C159.324 147.498 159.006 147.386 158.54 147.386C158.213 147.386 157.9 147.465 157.602 147.624C157.312 147.773 157.051 147.955 156.818 148.17V153H155.32ZM169.704 153.14C168.91 153.14 168.299 152.921 167.87 152.482C167.45 152.043 167.24 151.399 167.24 150.55V146.364H168.766V150.55C168.766 151.045 168.887 151.409 169.13 151.642C169.372 151.875 169.746 151.992 170.25 151.992C170.623 151.992 170.968 151.922 171.286 151.782C171.603 151.642 171.878 151.455 172.112 151.222V146.364H173.624V153H172.238L172.168 152.314C171.869 152.547 171.514 152.743 171.104 152.902C170.693 153.061 170.226 153.14 169.704 153.14ZM175.403 153V146.364H176.803L176.873 147.064C177.172 146.831 177.527 146.635 177.937 146.476C178.357 146.308 178.819 146.224 179.323 146.224C180.182 146.224 180.807 146.425 181.199 146.826C181.591 147.227 181.787 147.853 181.787 148.702V153H180.275V148.772C180.275 148.259 180.168 147.899 179.953 147.694C179.748 147.489 179.356 147.386 178.777 147.386C178.432 147.386 178.091 147.456 177.755 147.596C177.429 147.736 177.153 147.918 176.929 148.142V153H175.403ZM184.057 144.978V143.718H185.723V144.978H184.057ZM184.183 153V147.526H183.175L183.315 146.364H185.709V153H184.183ZM190.751 153.14C189.585 153.14 188.703 152.846 188.105 152.258C187.508 151.661 187.209 150.802 187.209 149.682C187.209 148.515 187.536 147.647 188.189 147.078C188.852 146.509 189.734 146.224 190.835 146.224C191.293 146.224 191.675 146.257 191.983 146.322C192.301 146.387 192.604 146.49 192.893 146.63V147.764C192.408 147.521 191.82 147.4 191.129 147.4C190.364 147.4 189.776 147.573 189.365 147.918C188.955 148.254 188.749 148.842 188.749 149.682C188.749 150.475 188.931 151.059 189.295 151.432C189.659 151.796 190.261 151.978 191.101 151.978C191.764 151.978 192.366 151.852 192.907 151.6V152.762C192.599 152.883 192.268 152.977 191.913 153.042C191.568 153.107 191.181 153.14 190.751 153.14ZM196.192 153.14C195.772 153.14 195.38 153.065 195.016 152.916C194.662 152.767 194.377 152.543 194.162 152.244C193.948 151.936 193.84 151.558 193.84 151.11C193.84 150.475 194.055 149.967 194.484 149.584C194.923 149.192 195.595 148.996 196.5 148.996H198.628V148.702C198.628 148.385 198.577 148.133 198.474 147.946C198.381 147.759 198.204 147.624 197.942 147.54C197.69 147.456 197.317 147.414 196.822 147.414C196.038 147.414 195.306 147.531 194.624 147.764V146.63C194.923 146.509 195.287 146.411 195.716 146.336C196.146 146.261 196.608 146.224 197.102 146.224C198.073 146.224 198.81 146.42 199.314 146.812C199.828 147.204 200.084 147.843 200.084 148.73V153H198.782L198.684 152.328C198.414 152.589 198.078 152.79 197.676 152.93C197.284 153.07 196.79 153.14 196.192 153.14ZM196.598 152.048C197.056 152.048 197.452 151.973 197.788 151.824C198.134 151.665 198.414 151.455 198.628 151.194V150.032H196.528C196.08 150.032 195.754 150.121 195.548 150.298C195.352 150.466 195.254 150.727 195.254 151.082C195.254 151.427 195.371 151.675 195.604 151.824C195.838 151.973 196.169 152.048 196.598 152.048ZM204.311 153.14C203.601 153.14 203.069 152.953 202.715 152.58C202.369 152.197 202.197 151.679 202.197 151.026V147.554H201.217V146.364H202.197V144.838L203.709 144.376V146.364H205.473L205.375 147.554H203.709V150.942C203.709 151.325 203.797 151.595 203.975 151.754C204.152 151.903 204.441 151.978 204.843 151.978C205.095 151.978 205.361 151.931 205.641 151.838V152.916C205.277 153.065 204.833 153.14 204.311 153.14ZM207.368 144.978V143.718H209.034V144.978H207.368ZM207.494 153V147.526H206.486L206.626 146.364H209.02V153H207.494ZM213.978 153.14C212.783 153.14 211.906 152.841 211.346 152.244C210.795 151.647 210.52 150.793 210.52 149.682C210.52 148.571 210.8 147.717 211.36 147.12C211.92 146.523 212.793 146.224 213.978 146.224C215.173 146.224 216.05 146.523 216.61 147.12C217.17 147.717 217.45 148.571 217.45 149.682C217.45 150.793 217.17 151.647 216.61 152.244C216.059 152.841 215.182 153.14 213.978 153.14ZM213.978 151.852C214.678 151.852 215.173 151.684 215.462 151.348C215.761 151.003 215.91 150.447 215.91 149.682C215.91 148.917 215.761 148.366 215.462 148.03C215.173 147.694 214.678 147.526 213.978 147.526C213.287 147.526 212.793 147.694 212.494 148.03C212.205 148.366 212.06 148.917 212.06 149.682C212.06 150.447 212.205 151.003 212.494 151.348C212.793 151.684 213.287 151.852 213.978 151.852ZM218.935 153V146.364H220.335L220.405 147.064C220.703 146.831 221.058 146.635 221.469 146.476C221.889 146.308 222.351 146.224 222.855 146.224C223.713 146.224 224.339 146.425 224.731 146.826C225.123 147.227 225.319 147.853 225.319 148.702V153H223.807V148.772C223.807 148.259 223.699 147.899 223.485 147.694C223.279 147.489 222.887 147.386 222.309 147.386C221.963 147.386 221.623 147.456 221.287 147.596C220.96 147.736 220.685 147.918 220.461 148.142V153H218.935Z" fill="#DFDFDF"/>
<path d="M131.11 153.14C129.626 153.14 128.501 152.734 127.736 151.922C126.98 151.11 126.602 150.013 126.602 148.632C126.602 147.643 126.761 146.793 127.078 146.084C127.405 145.365 127.899 144.815 128.562 144.432C129.225 144.04 130.069 143.844 131.096 143.844C131.619 143.844 132.095 143.886 132.524 143.97C132.963 144.045 133.369 144.147 133.742 144.278V145.608C133.369 145.459 132.967 145.347 132.538 145.272C132.118 145.188 131.675 145.146 131.208 145.146C130.088 145.146 129.295 145.445 128.828 146.042C128.371 146.639 128.142 147.503 128.142 148.632C128.142 149.687 128.394 150.489 128.898 151.04C129.402 151.581 130.181 151.852 131.236 151.852C131.665 151.852 132.095 151.819 132.524 151.754C132.963 151.679 133.373 151.567 133.756 151.418V152.762C133.383 152.883 132.977 152.977 132.538 153.042C132.109 153.107 131.633 153.14 131.11 153.14ZM138.373 153.14C137.178 153.14 136.301 152.841 135.741 152.244C135.19 151.647 134.915 150.793 134.915 149.682C134.915 148.571 135.195 147.717 135.755 147.12C136.315 146.523 137.187 146.224 138.373 146.224C139.567 146.224 140.445 146.523 141.005 147.12C141.565 147.717 141.845 148.571 141.845 149.682C141.845 150.793 141.565 151.647 141.005 152.244C140.454 152.841 139.577 153.14 138.373 153.14ZM138.373 151.852C139.073 151.852 139.567 151.684 139.857 151.348C140.155 151.003 140.305 150.447 140.305 149.682C140.305 148.917 140.155 148.366 139.857 148.03C139.567 147.694 139.073 147.526 138.373 147.526C137.682 147.526 137.187 147.694 136.889 148.03C136.599 148.366 136.455 148.917 136.455 149.682C136.455 150.447 136.599 151.003 136.889 151.348C137.187 151.684 137.682 151.852 138.373 151.852ZM143.329 153V146.364H144.729L144.799 147.064C145.126 146.803 145.485 146.597 145.877 146.448C146.269 146.299 146.689 146.224 147.137 146.224C147.613 146.224 147.982 146.303 148.243 146.462C148.514 146.611 148.719 146.821 148.859 147.092C149.167 146.84 149.522 146.635 149.923 146.476C150.325 146.308 150.805 146.224 151.365 146.224C152.131 146.224 152.695 146.42 153.059 146.812C153.423 147.204 153.605 147.806 153.605 148.618V153H152.107V148.772C152.107 148.259 152 147.899 151.785 147.694C151.571 147.489 151.221 147.386 150.735 147.386C150.418 147.386 150.115 147.442 149.825 147.554C149.545 147.666 149.303 147.834 149.097 148.058C149.125 148.161 149.144 148.268 149.153 148.38C149.163 148.492 149.167 148.613 149.167 148.744V153H147.753V148.786C147.753 148.301 147.669 147.946 147.501 147.722C147.333 147.498 147.016 147.386 146.549 147.386C146.223 147.386 145.91 147.465 145.611 147.624C145.322 147.773 145.061 147.955 144.827 148.17V153H143.329ZM155.32 153V146.364H156.72L156.79 147.064C157.116 146.803 157.476 146.597 157.868 146.448C158.26 146.299 158.68 146.224 159.128 146.224C159.604 146.224 159.972 146.303 160.234 146.462C160.504 146.611 160.71 146.821 160.85 147.092C161.158 146.84 161.512 146.635 161.914 146.476C162.315 146.308 162.796 146.224 163.356 146.224C164.121 146.224 164.686 146.42 165.05 146.812C165.414 147.204 165.596 147.806 165.596 148.618V153H164.098V148.772C164.098 148.259 163.99 147.899 163.776 147.694C163.561 147.489 163.211 147.386 162.726 147.386C162.408 147.386 162.105 147.442 161.816 147.554C161.536 147.666 161.293 147.834 161.088 148.058C161.116 148.161 161.134 148.268 161.144 148.38C161.153 148.492 161.158 148.613 161.158 148.744V153H159.744V148.786C159.744 148.301 159.66 147.946 159.492 147.722C159.324 147.498 159.006 147.386 158.54 147.386C158.213 147.386 157.9 147.465 157.602 147.624C157.312 147.773 157.051 147.955 156.818 148.17V153H155.32ZM169.704 153.14C168.91 153.14 168.299 152.921 167.87 152.482C167.45 152.043 167.24 151.399 167.24 150.55V146.364H168.766V150.55C168.766 151.045 168.887 151.409 169.13 151.642C169.372 151.875 169.746 151.992 170.25 151.992C170.623 151.992 170.968 151.922 171.286 151.782C171.603 151.642 171.878 151.455 172.112 151.222V146.364H173.624V153H172.238L172.168 152.314C171.869 152.547 171.514 152.743 171.104 152.902C170.693 153.061 170.226 153.14 169.704 153.14ZM175.403 153V146.364H176.803L176.873 147.064C177.172 146.831 177.527 146.635 177.937 146.476C178.357 146.308 178.819 146.224 179.323 146.224C180.182 146.224 180.807 146.425 181.199 146.826C181.591 147.227 181.787 147.853 181.787 148.702V153H180.275V148.772C180.275 148.259 180.168 147.899 179.953 147.694C179.748 147.489 179.356 147.386 178.777 147.386C178.432 147.386 178.091 147.456 177.755 147.596C177.429 147.736 177.153 147.918 176.929 148.142V153H175.403ZM184.057 144.978V143.718H185.723V144.978H184.057ZM184.183 153V147.526H183.175L183.315 146.364H185.709V153H184.183ZM190.751 153.14C189.585 153.14 188.703 152.846 188.105 152.258C187.508 151.661 187.209 150.802 187.209 149.682C187.209 148.515 187.536 147.647 188.189 147.078C188.852 146.509 189.734 146.224 190.835 146.224C191.293 146.224 191.675 146.257 191.983 146.322C192.301 146.387 192.604 146.49 192.893 146.63V147.764C192.408 147.521 191.82 147.4 191.129 147.4C190.364 147.4 189.776 147.573 189.365 147.918C188.955 148.254 188.749 148.842 188.749 149.682C188.749 150.475 188.931 151.059 189.295 151.432C189.659 151.796 190.261 151.978 191.101 151.978C191.764 151.978 192.366 151.852 192.907 151.6V152.762C192.599 152.883 192.268 152.977 191.913 153.042C191.568 153.107 191.181 153.14 190.751 153.14ZM196.192 153.14C195.772 153.14 195.38 153.065 195.016 152.916C194.662 152.767 194.377 152.543 194.162 152.244C193.948 151.936 193.84 151.558 193.84 151.11C193.84 150.475 194.055 149.967 194.484 149.584C194.923 149.192 195.595 148.996 196.5 148.996H198.628V148.702C198.628 148.385 198.577 148.133 198.474 147.946C198.381 147.759 198.204 147.624 197.942 147.54C197.69 147.456 197.317 147.414 196.822 147.414C196.038 147.414 195.306 147.531 194.624 147.764V146.63C194.923 146.509 195.287 146.411 195.716 146.336C196.146 146.261 196.608 146.224 197.102 146.224C198.073 146.224 198.81 146.42 199.314 146.812C199.828 147.204 200.084 147.843 200.084 148.73V153H198.782L198.684 152.328C198.414 152.589 198.078 152.79 197.676 152.93C197.284 153.07 196.79 153.14 196.192 153.14ZM196.598 152.048C197.056 152.048 197.452 151.973 197.788 151.824C198.134 151.665 198.414 151.455 198.628 151.194V150.032H196.528C196.08 150.032 195.754 150.121 195.548 150.298C195.352 150.466 195.254 150.727 195.254 151.082C195.254 151.427 195.371 151.675 195.604 151.824C195.838 151.973 196.169 152.048 196.598 152.048ZM204.311 153.14C203.601 153.14 203.069 152.953 202.715 152.58C202.369 152.197 202.197 151.679 202.197 151.026V147.554H201.217V146.364H202.197V144.838L203.709 144.376V146.364H205.473L205.375 147.554H203.709V150.942C203.709 151.325 203.797 151.595 203.975 151.754C204.152 151.903 204.441 151.978 204.843 151.978C205.095 151.978 205.361 151.931 205.641 151.838V152.916C205.277 153.065 204.833 153.14 204.311 153.14ZM207.368 144.978V143.718H209.034V144.978H207.368ZM207.494 153V147.526H206.486L206.626 146.364H209.02V153H207.494ZM213.978 153.14C212.783 153.14 211.906 152.841 211.346 152.244C210.795 151.647 210.52 150.793 210.52 149.682C210.52 148.571 210.8 147.717 211.36 147.12C211.92 146.523 212.793 146.224 213.978 146.224C215.173 146.224 216.05 146.523 216.61 147.12C217.17 147.717 217.45 148.571 217.45 149.682C217.45 150.793 217.17 151.647 216.61 152.244C216.059 152.841 215.182 153.14 213.978 153.14ZM213.978 151.852C214.678 151.852 215.173 151.684 215.462 151.348C215.761 151.003 215.91 150.447 215.91 149.682C215.91 148.917 215.761 148.366 215.462 148.03C215.173 147.694 214.678 147.526 213.978 147.526C213.287 147.526 212.793 147.694 212.494 148.03C212.205 148.366 212.06 148.917 212.06 149.682C212.06 150.447 212.205 151.003 212.494 151.348C212.793 151.684 213.287 151.852 213.978 151.852ZM218.935 153V146.364H220.335L220.405 147.064C220.703 146.831 221.058 146.635 221.469 146.476C221.889 146.308 222.351 146.224 222.855 146.224C223.713 146.224 224.339 146.425 224.731 146.826C225.123 147.227 225.319 147.853 225.319 148.702V153H223.807V148.772C223.807 148.259 223.699 147.899 223.485 147.694C223.279 147.489 222.887 147.386 222.309 147.386C221.963 147.386 221.623 147.456 221.287 147.596C220.96 147.736 220.685 147.918 220.461 148.142V153H218.935Z" fill="#DFDFDF"/>
<path d="M131.11 153.14C129.626 153.14 128.501 152.734 127.736 151.922C126.98 151.11 126.602 150.013 126.602 148.632C126.602 147.643 126.761 146.793 127.078 146.084C127.405 145.365 127.899 144.815 128.562 144.432C129.225 144.04 130.069 143.844 131.096 143.844C131.619 143.844 132.095 143.886 132.524 143.97C132.963 144.045 133.369 144.147 133.742 144.278V145.608C133.369 145.459 132.967 145.347 132.538 145.272C132.118 145.188 131.675 145.146 131.208 145.146C130.088 145.146 129.295 145.445 128.828 146.042C128.371 146.639 128.142 147.503 128.142 148.632C128.142 149.687 128.394 150.489 128.898 151.04C129.402 151.581 130.181 151.852 131.236 151.852C131.665 151.852 132.095 151.819 132.524 151.754C132.963 151.679 133.373 151.567 133.756 151.418V152.762C133.383 152.883 132.977 152.977 132.538 153.042C132.109 153.107 131.633 153.14 131.11 153.14ZM138.373 153.14C137.178 153.14 136.301 152.841 135.741 152.244C135.19 151.647 134.915 150.793 134.915 149.682C134.915 148.571 135.195 147.717 135.755 147.12C136.315 146.523 137.187 146.224 138.373 146.224C139.567 146.224 140.445 146.523 141.005 147.12C141.565 147.717 141.845 148.571 141.845 149.682C141.845 150.793 141.565 151.647 141.005 152.244C140.454 152.841 139.577 153.14 138.373 153.14ZM138.373 151.852C139.073 151.852 139.567 151.684 139.857 151.348C140.155 151.003 140.305 150.447 140.305 149.682C140.305 148.917 140.155 148.366 139.857 148.03C139.567 147.694 139.073 147.526 138.373 147.526C137.682 147.526 137.187 147.694 136.889 148.03C136.599 148.366 136.455 148.917 136.455 149.682C136.455 150.447 136.599 151.003 136.889 151.348C137.187 151.684 137.682 151.852 138.373 151.852ZM143.329 153V146.364H144.729L144.799 147.064C145.126 146.803 145.485 146.597 145.877 146.448C146.269 146.299 146.689 146.224 147.137 146.224C147.613 146.224 147.982 146.303 148.243 146.462C148.514 146.611 148.719 146.821 148.859 147.092C149.167 146.84 149.522 146.635 149.923 146.476C150.325 146.308 150.805 146.224 151.365 146.224C152.131 146.224 152.695 146.42 153.059 146.812C153.423 147.204 153.605 147.806 153.605 148.618V153H152.107V148.772C152.107 148.259 152 147.899 151.785 147.694C151.571 147.489 151.221 147.386 150.735 147.386C150.418 147.386 150.115 147.442 149.825 147.554C149.545 147.666 149.303 147.834 149.097 148.058C149.125 148.161 149.144 148.268 149.153 148.38C149.163 148.492 149.167 148.613 149.167 148.744V153H147.753V148.786C147.753 148.301 147.669 147.946 147.501 147.722C147.333 147.498 147.016 147.386 146.549 147.386C146.223 147.386 145.91 147.465 145.611 147.624C145.322 147.773 145.061 147.955 144.827 148.17V153H143.329ZM155.32 153V146.364H156.72L156.79 147.064C157.116 146.803 157.476 146.597 157.868 146.448C158.26 146.299 158.68 146.224 159.128 146.224C159.604 146.224 159.972 146.303 160.234 146.462C160.504 146.611 160.71 146.821 160.85 147.092C161.158 146.84 161.512 146.635 161.914 146.476C162.315 146.308 162.796 146.224 163.356 146.224C164.121 146.224 164.686 146.42 165.05 146.812C165.414 147.204 165.596 147.806 165.596 148.618V153H164.098V148.772C164.098 148.259 163.99 147.899 163.776 147.694C163.561 147.489 163.211 147.386 162.726 147.386C162.408 147.386 162.105 147.442 161.816 147.554C161.536 147.666 161.293 147.834 161.088 148.058C161.116 148.161 161.134 148.268 161.144 148.38C161.153 148.492 161.158 148.613 161.158 148.744V153H159.744V148.786C159.744 148.301 159.66 147.946 159.492 147.722C159.324 147.498 159.006 147.386 158.54 147.386C158.213 147.386 157.9 147.465 157.602 147.624C157.312 147.773 157.051 147.955 156.818 148.17V153H155.32ZM169.704 153.14C168.91 153.14 168.299 152.921 167.87 152.482C167.45 152.043 167.24 151.399 167.24 150.55V146.364H168.766V150.55C168.766 151.045 168.887 151.409 169.13 151.642C169.372 151.875 169.746 151.992 170.25 151.992C170.623 151.992 170.968 151.922 171.286 151.782C171.603 151.642 171.878 151.455 172.112 151.222V146.364H173.624V153H172.238L172.168 152.314C171.869 152.547 171.514 152.743 171.104 152.902C170.693 153.061 170.226 153.14 169.704 153.14ZM175.403 153V146.364H176.803L176.873 147.064C177.172 146.831 177.527 146.635 177.937 146.476C178.357 146.308 178.819 146.224 179.323 146.224C180.182 146.224 180.807 146.425 181.199 146.826C181.591 147.227 181.787 147.853 181.787 148.702V153H180.275V148.772C180.275 148.259 180.168 147.899 179.953 147.694C179.748 147.489 179.356 147.386 178.777 147.386C178.432 147.386 178.091 147.456 177.755 147.596C177.429 147.736 177.153 147.918 176.929 148.142V153H175.403ZM184.057 144.978V143.718H185.723V144.978H184.057ZM184.183 153V147.526H183.175L183.315 146.364H185.709V153H184.183ZM190.751 153.14C189.585 153.14 188.703 152.846 188.105 152.258C187.508 151.661 187.209 150.802 187.209 149.682C187.209 148.515 187.536 147.647 188.189 147.078C188.852 146.509 189.734 146.224 190.835 146.224C191.293 146.224 191.675 146.257 191.983 146.322C192.301 146.387 192.604 146.49 192.893 146.63V147.764C192.408 147.521 191.82 147.4 191.129 147.4C190.364 147.4 189.776 147.573 189.365 147.918C188.955 148.254 188.749 148.842 188.749 149.682C188.749 150.475 188.931 151.059 189.295 151.432C189.659 151.796 190.261 151.978 191.101 151.978C191.764 151.978 192.366 151.852 192.907 151.6V152.762C192.599 152.883 192.268 152.977 191.913 153.042C191.568 153.107 191.181 153.14 190.751 153.14ZM196.192 153.14C195.772 153.14 195.38 153.065 195.016 152.916C194.662 152.767 194.377 152.543 194.162 152.244C193.948 151.936 193.84 151.558 193.84 151.11C193.84 150.475 194.055 149.967 194.484 149.584C194.923 149.192 195.595 148.996 196.5 148.996H198.628V148.702C198.628 148.385 198.577 148.133 198.474 147.946C198.381 147.759 198.204 147.624 197.942 147.54C197.69 147.456 197.317 147.414 196.822 147.414C196.038 147.414 195.306 147.531 194.624 147.764V146.63C194.923 146.509 195.287 146.411 195.716 146.336C196.146 146.261 196.608 146.224 197.102 146.224C198.073 146.224 198.81 146.42 199.314 146.812C199.828 147.204 200.084 147.843 200.084 148.73V153H198.782L198.684 152.328C198.414 152.589 198.078 152.79 197.676 152.93C197.284 153.07 196.79 153.14 196.192 153.14ZM196.598 152.048C197.056 152.048 197.452 151.973 197.788 151.824C198.134 151.665 198.414 151.455 198.628 151.194V150.032H196.528C196.08 150.032 195.754 150.121 195.548 150.298C195.352 150.466 195.254 150.727 195.254 151.082C195.254 151.427 195.371 151.675 195.604 151.824C195.838 151.973 196.169 152.048 196.598 152.048ZM204.311 153.14C203.601 153.14 203.069 152.953 202.715 152.58C202.369 152.197 202.197 151.679 202.197 151.026V147.554H201.217V146.364H202.197V144.838L203.709 144.376V146.364H205.473L205.375 147.554H203.709V150.942C203.709 151.325 203.797 151.595 203.975 151.754C204.152 151.903 204.441 151.978 204.843 151.978C205.095 151.978 205.361 151.931 205.641 151.838V152.916C205.277 153.065 204.833 153.14 204.311 153.14ZM207.368 144.978V143.718H209.034V144.978H207.368ZM207.494 153V147.526H206.486L206.626 146.364H209.02V153H207.494ZM213.978 153.14C212.783 153.14 211.906 152.841 211.346 152.244C210.795 151.647 210.52 150.793 210.52 149.682C210.52 148.571 210.8 147.717 211.36 147.12C211.92 146.523 212.793 146.224 213.978 146.224C215.173 146.224 216.05 146.523 216.61 147.12C217.17 147.717 217.45 148.571 217.45 149.682C217.45 150.793 217.17 151.647 216.61 152.244C216.059 152.841 215.182 153.14 213.978 153.14ZM213.978 151.852C214.678 151.852 215.173 151.684 215.462 151.348C215.761 151.003 215.91 150.447 215.91 149.682C215.91 148.917 215.761 148.366 215.462 148.03C215.173 147.694 214.678 147.526 213.978 147.526C213.287 147.526 212.793 147.694 212.494 148.03C212.205 148.366 212.06 148.917 212.06 149.682C212.06 150.447 212.205 151.003 212.494 151.348C212.793 151.684 213.287 151.852 213.978 151.852ZM218.935 153V146.364H220.335L220.405 147.064C220.703 146.831 221.058 146.635 221.469 146.476C221.889 146.308 222.351 146.224 222.855 146.224C223.713 146.224 224.339 146.425 224.731 146.826C225.123 147.227 225.319 147.853 225.319 148.702V153H223.807V148.772C223.807 148.259 223.699 147.899 223.485 147.694C223.279 147.489 222.887 147.386 222.309 147.386C221.963 147.386 221.623 147.456 221.287 147.596C220.96 147.736 220.685 147.918 220.461 148.142V153H218.935Z" fill="#DFDFDF"/>
<path d="M144.437 44.3768C194.437 33.8771 227.937 86.8772 227.937 86.8772C227.937 86.8772 195.437 46.8743 151.437 57.8743C107.437 68.8743 110.437 95.8772 110.437 95.8772C110.437 95.8772 94.4366 54.8766 144.437 44.3768Z" fill="white"/>
<defs>
<filter id="filter0_d_13_506" x="0" y="0" width="335" height="210" filterUnits="userSpaceOnUse" color-interpolation-filters="sRGB">
<feFlood flood-opacity="0" result="BackgroundImageFix"/>
<feColorMatrix in="SourceAlpha" type="matrix" values="0 0 0 0 0 0 0 0 0 0 0 0 0 0 0 0 0 0 127 0" result="hardAlpha"/>
<feOffset dy="4"/>
<feGaussianBlur stdDeviation="2"/>
<feComposite in2="hardAlpha" operator="out"/>
<feColorMatrix type="matrix" values="0 0 0 0 0 0 0 0 0 0 0 0 0 0 0 0 0 0 0.25 0"/>
<feBlend mode="normal" in2="BackgroundImageFix" result="effect1_dropShadow_13_506"/>
<feBlend mode="normal" in="SourceGraphic" in2="effect1_dropShadow_13_506" result="shape"/>
</filter>
</defs>
</svg>
