<svg width="256" height="256" viewBox="0 0 256 256" fill="none" xmlns="http://www.w3.org/2000/svg">
<g clip-path="url(#clip0_7_456)">
<path d="M237.674 104.758C240.536 96.1384 241.526 87.0068 240.577 77.9737C239.629 68.9406 236.763 60.2138 232.173 52.3765C225.367 40.5304 214.975 31.1515 202.496 25.5921C190.016 20.0326 176.093 18.5798 162.735 21.4432C155.146 13.0012 145.469 6.70474 134.676 3.18624C123.883 -0.332254 112.354 -0.948929 101.248 1.39815C90.1412 3.74524 79.8477 8.97344 71.4012 16.5577C62.9547 24.1419 56.6524 33.8151 53.1275 44.6058C44.2279 46.4308 35.8204 50.1342 28.4667 55.4687C21.1131 60.8032 14.9827 67.6458 10.4853 75.5392C3.60571 87.3656 0.665397 101.073 2.0895 114.681C3.51361 128.288 9.22833 141.09 18.4075 151.236C15.5346 159.852 14.5347 168.982 15.4747 178.015C16.4147 187.049 19.2729 195.777 23.8581 203.617C30.6724 215.468 41.0733 224.848 53.5617 230.408C66.0501 235.967 79.9812 237.418 93.3472 234.551C99.3767 241.341 106.785 246.767 115.078 250.465C123.372 254.164 132.358 256.051 141.439 256C155.131 256.013 168.473 251.674 179.539 243.61C190.605 235.547 198.822 224.176 203.005 211.138C211.903 209.31 220.31 205.605 227.663 200.271C235.016 194.936 241.147 188.095 245.647 180.204C252.445 168.395 255.335 154.738 253.903 141.188C252.471 127.637 246.79 114.885 237.674 104.758ZM141.439 239.245C130.225 239.263 119.363 235.332 110.757 228.143L112.271 227.285L163.239 197.865C164.508 197.121 165.561 196.059 166.296 194.785C167.03 193.511 167.42 192.068 167.428 190.597V118.737L188.975 131.202C189.081 131.256 189.174 131.334 189.244 131.431C189.315 131.527 189.361 131.639 189.38 131.757V191.304C189.353 204.011 184.294 216.189 175.309 225.174C166.324 234.159 154.145 239.218 141.439 239.245ZM38.3915 195.241C32.7677 185.53 30.7485 174.147 32.6891 163.094L34.2037 164.003L85.2224 193.424C86.4848 194.165 87.9219 194.555 89.3856 194.555C90.8493 194.555 92.2864 194.165 93.5488 193.424L155.872 157.493V182.372C155.866 182.501 155.831 182.627 155.77 182.741C155.709 182.854 155.622 182.953 155.518 183.028L103.893 212.802C92.876 219.149 79.7904 220.864 67.5094 217.572C55.2285 214.279 44.7561 206.248 38.3915 195.241ZM24.9685 84.2197C30.6313 74.4466 39.5694 66.9923 50.2005 63.1765V123.733C50.1813 125.196 50.5552 126.638 51.2829 127.907C52.0107 129.176 53.0658 130.227 54.3381 130.949L116.358 166.729L94.8107 179.192C94.6941 179.254 94.564 179.287 94.432 179.287C94.3 179.287 94.17 179.254 94.0533 179.192L42.5301 149.47C31.5335 143.096 23.5109 132.623 20.2194 120.346C16.9278 108.069 18.6355 94.9884 24.9685 83.968V84.2197ZM201.996 125.348L139.774 89.216L161.271 76.8C161.388 76.7381 161.518 76.7057 161.65 76.7057C161.782 76.7057 161.912 76.7381 162.029 76.8L213.552 106.574C221.43 111.119 227.852 117.812 232.069 125.871C236.286 133.93 238.123 143.022 237.366 152.085C236.61 161.149 233.291 169.811 227.796 177.059C222.301 184.307 214.858 189.842 206.336 193.019V132.462C206.291 131.001 205.868 129.578 205.107 128.33C204.345 127.083 203.274 126.056 201.996 125.348ZM223.443 93.1018L221.929 92.193L171.011 62.5205C169.741 61.7752 168.295 61.3822 166.822 61.3822C165.35 61.3822 163.904 61.7752 162.634 62.5205L100.363 98.4501V73.5722C100.349 73.4458 100.371 73.318 100.424 73.2026C100.477 73.0871 100.561 72.9882 100.666 72.9162L152.189 43.1925C160.085 38.6434 169.114 36.4366 178.219 36.8305C187.324 37.2243 196.128 40.2023 203.603 45.4163C211.077 50.6303 216.912 57.8647 220.426 66.2734C223.94 74.682 224.987 83.9174 223.444 92.8992L223.443 93.1018ZM88.6027 137.205L67.056 124.791C66.9482 124.727 66.856 124.639 66.786 124.534C66.7159 124.43 66.6697 124.311 66.6507 124.187V64.7915C66.6625 55.6797 69.2681 46.7596 74.1627 39.0741C79.0573 31.3886 86.0387 25.2553 94.2906 21.3913C102.542 17.5273 111.724 16.0924 120.761 17.2542C129.799 18.4159 138.319 22.1265 145.325 27.952L143.81 28.8106L92.8427 58.2293C91.5741 58.9733 90.5209 60.0345 89.7865 61.3086C89.0521 62.5827 88.6618 64.0259 88.6539 65.4965L88.6027 137.205ZM100.31 111.974L128.065 95.9765L155.872 111.974V143.968L128.166 159.965L100.362 143.968L100.31 111.974Z" fill="#4A99E9"/>
</g>
<defs>
<clipPath id="clip0_7_456">
<rect width="256" height="256" fill="white"/>
</clipPath>
</defs>
</svg>
