<svg width="500" height="500" viewBox="0 0 500 500" fill="none" xmlns="http://www.w3.org/2000/svg">
<rect width="500" height="500" rx="40" fill="white"/>
<circle cx="250" cy="196" r="171" fill="#232021" stroke="#65A2FD" stroke-width="10"/>
<path d="M250.033 77.4692L352.235 179.671C361.998 189.434 361.998 205.263 352.235 215.026L319.116 248.145L199.237 128.265L250.033 77.4692Z" fill="#65A2FD"/>
<path d="M182.266 144.122L233.062 194.919L182.266 245.715L145.612 209.061C137.801 201.25 137.801 188.587 145.612 180.776L182.266 144.122Z" fill="#FEFEFD"/>
<path d="M251.229 210.212L302.025 261.008L265.371 297.663C257.561 305.473 244.897 305.473 237.087 297.663L200.433 261.008L251.229 210.212Z" fill="#FEFEFE"/>
<path d="M176.636 408.455H183.364L199.182 447.091H199.727L215.545 408.455H222.273V455H217V419.636H216.545L202 455H196.909L182.364 419.636H181.909V455H176.636V408.455ZM233.574 408.455H240.301L256.119 447.091H256.665L272.483 408.455H279.21V455H273.938V419.636H273.483L258.938 455H253.847L239.301 419.636H238.847V455H233.574V408.455ZM287.966 413.455V408.455H322.875V413.455H308.239V455H302.602V413.455H287.966Z" fill="#65A2FD"/>
</svg>
